<?xml version="1.0" standalone="no"?>
<!DOCTYPE svg PUBLIC "-//W3C//DTD SVG 20010904//EN"
 "http://www.w3.org/TR/2001/REC-SVG-20010904/DTD/svg10.dtd">
<svg version="1.0" xmlns="http://www.w3.org/2000/svg"
 width="1280.000000pt" height="640.000000pt" viewBox="0 0 1280.000000 640.000000"
 preserveAspectRatio="xMidYMid meet">
<metadata>
Created by potrace 1.15, written by Peter Selinger 2001-2017
</metadata>
<g transform="translate(0.000000,640.000000) scale(0.100000,-0.100000)"
fill="#211C1C" stroke="none">
<path d="M12580 4769 c-788 -591 -1619 -1060 -2252 -1269 -309 -102 -525 -142
-773 -143 -360 -1 -541 72 -623 251 -43 92 -65 184 -106 447 -40 247 -63 340
-107 426 -57 113 -126 167 -264 207 -401 117 -832 -20 -1388 -441 -156 -119
-289 -228 -607 -502 -553 -476 -787 -652 -1033 -780 l-96 -50 -28 26 c-47 45
-293 189 -322 189 -8 0 -11 -48 -11 -165 0 -148 -2 -166 -17 -173 -10 -4 -83
-7 -163 -6 -126 1 -156 5 -233 28 -208 62 -286 131 -342 301 -27 78 -27 84
-25 305 4 338 -7 918 -18 975 -30 145 -76 221 -158 261 -116 57 -280 28 -568
-102 -242 -109 -539 -282 -1246 -726 -223 -140 -419 -263 -437 -273 -31 -18
-32 -18 -80 3 -50 21 -291 72 -343 72 -18 0 -30 -5 -30 -13 0 -7 20 -72 44
-145 l45 -132 -22 -14 c-131 -84 -463 -251 -639 -320 -177 -70 -294 -97 -418
-99 -91 -2 -112 1 -155 21 -27 13 -64 37 -81 53 -24 23 -34 27 -40 18 -11 -19
67 -84 124 -103 26 -9 79 -19 117 -23 l70 -5 -3 -130 -3 -130 -82 4 c-67 3
-92 10 -136 33 -30 17 -59 38 -65 47 -14 23 -38 23 -34 1 5 -26 83 -81 140
-98 29 -8 80 -15 115 -15 l63 0 0 -131 0 -132 -68 5 c-77 6 -145 32 -182 71
-26 27 -50 35 -50 17 0 -19 54 -62 109 -88 34 -16 79 -27 123 -30 l68 -5 0
-158 0 -159 -65 0 c-77 0 -161 29 -206 71 -34 32 -49 36 -49 15 0 -19 64 -69
115 -91 22 -9 77 -19 123 -22 l82 -6 0 -150 0 -149 -93 4 c-78 3 -100 8 -146
33 -30 16 -59 38 -65 47 -6 10 -17 18 -24 18 -25 0 -7 -34 36 -67 197 -150
604 -37 1297 360 200 114 423 250 774 471 383 242 653 408 846 521 167 98 470
255 492 255 11 0 13 -8 9 -27 -4 -24 -19 -261 -18 -288 2 -22 36 -14 144 36
151 70 241 130 281 187 29 43 32 53 32 124 -1 74 1 78 20 72 67 -21 103 -56
139 -134 51 -113 57 -233 42 -830 -7 -298 -6 -358 8 -442 46 -279 147 -390
421 -464 91 -24 291 -30 400 -10 341 60 698 270 1243 734 96 81 182 153 192
160 10 7 119 40 242 73 122 33 230 62 238 64 13 4 14 24 8 137 l-8 133 33 28
c64 57 294 226 402 296 136 89 331 189 450 231 81 28 240 69 273 70 8 0 12
-21 12 -70 0 -56 3 -70 15 -70 9 0 77 29 152 65 l136 65 61 -17 c96 -26 142
-49 192 -95 92 -84 127 -189 184 -543 43 -268 65 -355 111 -447 62 -123 152
-184 339 -229 82 -20 122 -23 290 -23 223 -1 325 13 565 74 279 71 561 181
925 361 434 214 953 533 1430 879 243 176 323 241 312 252 -7 7 -45 -16 -114
-69 -239 -183 -588 -425 -858 -594 -203 -128 -451 -272 -457 -266 -2 3 -10 63
-17 132 l-12 127 35 22 c20 13 47 29 61 36 14 7 113 65 220 128 435 259 1189
787 1162 814 -6 6 -72 -37 -173 -114 -291 -219 -660 -469 -954 -645 -214 -129
-347 -205 -351 -200 -2 2 -9 67 -16 145 l-13 142 115 64 c398 220 986 609
1338 883 77 60 97 83 71 83 -6 0 -56 -35 -112 -78 -125 -96 -452 -331 -472
-338 -8 -4 -15 -2 -15 2 0 5 -11 22 -24 39 l-24 29 -111 -73 c-66 -44 -108
-78 -104 -85 3 -6 15 -24 26 -39 11 -16 16 -32 11 -36 -29 -26 -437 -272 -645
-389 l-56 -32 -6 58 c-4 31 -9 89 -12 127 l-6 70 183 104 c241 136 571 343
788 493 195 135 554 400 564 416 3 6 2 13 -3 17 -6 3 -66 -36 -133 -88 -265
-202 -624 -448 -918 -629 -166 -102 -470 -278 -481 -278 -4 0 -10 46 -13 103
-4 56 -9 109 -12 119 -4 12 24 32 116 82 284 157 661 393 985 619 179 124 475
347 475 357 0 24 -30 6 -200 -121z m-4380 -91 c-67 -35 -84 -65 -90 -161 l-5
-81 -93 -13 c-160 -23 -393 -110 -574 -215 l-57 -33 -48 18 -47 18 28 -30 28
-29 -79 -53 c-187 -125 -384 -281 -699 -551 -94 -80 -185 -153 -203 -162 -17
-9 -41 -30 -53 -47 -38 -52 -535 -459 -561 -459 -9 0 -9 83 -1 181 6 72 8 76
42 98 82 54 314 242 581 471 568 487 700 592 926 742 320 213 615 324 865 327
l84 1 -44 -22z m-4188 -50 c46 -26 93 -93 114 -163 20 -66 46 -365 27 -315 -3
8 -15 39 -26 69 -45 123 -137 178 -276 168 -270 -20 -620 -199 -1616 -825
l-380 -239 -6 48 c-7 51 -38 110 -70 133 -18 12 -10 19 108 93 70 44 270 169
443 278 570 358 769 475 1016 598 349 173 550 220 666 155z m4555 -14 c82 -47
144 -149 182 -301 11 -43 36 -181 56 -308 74 -468 144 -574 420 -644 433 -109
1031 22 1785 393 85 42 158 76 161 76 4 0 10 -44 14 -97 3 -54 9 -108 12 -120
5 -21 -14 -32 -209 -128 -118 -58 -217 -105 -220 -105 -3 0 -8 25 -11 56 -3
31 -7 58 -9 59 -2 2 -142 -31 -312 -74 l-309 -77 -1 -99 -1 -99 -95 -23 c-107
-26 -240 -48 -347 -58 l-73 -7 51 107 c56 121 58 153 6 111 -164 -135 -215
-161 -280 -146 -42 9 -50 14 -108 62 -26 21 -57 38 -69 38 -25 0 -90 -60 -90
-84 0 -23 -20 -20 -71 12 -121 77 -169 197 -228 572 -38 237 -54 310 -87 398
-47 125 -111 197 -213 238 -117 47 -109 43 -87 43 30 1 87 50 103 88 17 43 5
88 -35 128 l-27 28 25 -8 c14 -4 44 -18 67 -31z m-392 -164 c18 -19 17 -20 -3
-20 -15 0 -22 6 -22 20 0 11 2 20 3 20 2 0 12 -9 22 -20z m168 -61 c62 -11
163 -41 198 -60 80 -43 148 -142 188 -274 19 -66 62 -287 56 -293 -1 -1 -10
21 -20 50 -41 128 -109 214 -202 258 -82 38 -224 69 -334 72 l-102 3 7 124 c4
68 9 128 12 133 6 10 96 4 197 -13z m-249 -111 c-3 -68 -9 -126 -13 -130 -3
-3 -44 -13 -91 -22 -91 -17 -248 -67 -342 -110 l-57 -25 -3 51 -3 52 -77 31
c-42 17 -80 33 -83 37 -10 10 266 143 368 177 104 35 211 59 270 60 l38 1 -7
-122z m-4108 63 c84 -38 137 -144 153 -308 5 -43 7 -80 5 -81 -1 -2 -9 9 -18
25 -32 62 -123 123 -185 123 -11 0 -11 3 2 18 63 70 25 166 -88 218 l-50 23
70 0 c47 0 83 -5 111 -18z m-435 -78 c-5 -10 -12 -72 -16 -138 l-7 -121 -104
-49 c-234 -108 -552 -294 -1189 -695 -507 -319 -627 -392 -636 -383 -17 20
-71 205 -61 215 5 5 50 34 98 63 l89 53 5 -76 c6 -87 20 -101 48 -45 16 30 53
135 67 188 3 13 891 568 1135 710 190 110 543 292 573 294 4 1 4 -7 -2 -16z
m50 -150 c8 -9 31 -24 52 -33 l37 -17 -60 -21 -60 -20 0 54 c0 56 8 66 31 37z
m3775 -29 c8 -20 20 -61 25 -92 6 -32 14 -64 19 -73 7 -13 -10 -28 -83 -75
-98 -62 -241 -163 -320 -226 -38 -30 -58 -38 -89 -38 -81 0 -148 -53 -148
-119 0 -33 -7 -42 -75 -99 -41 -34 -77 -62 -80 -62 -3 0 -5 6 -5 13 0 18 -49
64 -83 76 -16 6 -42 11 -58 11 -17 0 -29 4 -27 8 7 19 420 366 598 504 103 79
290 208 302 208 5 0 16 -16 24 -36z m1050 1 c112 -28 163 -54 214 -106 80 -83
121 -209 170 -524 50 -326 92 -457 174 -552 62 -71 224 -135 384 -150 34 -3
62 -9 62 -12 0 -3 -30 -73 -67 -154 l-67 -148 -36 6 c-69 12 -189 57 -228 85
-22 16 -54 49 -71 74 -68 98 -93 189 -146 521 -63 396 -123 523 -280 597 -55
25 -67 36 -108 101 -68 107 -102 145 -118 130 -10 -10 -9 -25 5 -75 10 -35 21
-72 24 -82 4 -16 1 -18 -22 -12 -15 4 -70 7 -123 7 l-95 1 6 56 c3 32 8 102
12 157 4 55 9 104 12 109 8 14 201 -4 298 -29z m-350 -72 c-4 -54 -9 -126 -12
-160 l-6 -62 -72 -11 c-90 -15 -234 -61 -350 -111 -49 -22 -93 -39 -98 -39
-12 0 -28 47 -22 64 3 8 46 33 95 57 49 23 89 46 89 50 0 5 -6 12 -13 16 -23
14 -76 87 -82 115 -6 24 -2 29 42 51 100 51 337 124 412 126 l23 1 -6 -97z
m-4071 38 c57 -26 93 -70 119 -142 21 -58 23 -76 18 -203 l-5 -140 -22 45
c-79 152 -223 177 -494 84 -41 -14 -75 -25 -75 -25 -1 0 4 70 10 156 7 115 14
158 25 165 25 16 162 57 224 67 97 15 157 13 200 -7z m-489 -213 c-10 -200 2
-179 -141 -247 -132 -63 -371 -194 -498 -273 -43 -26 -80 -48 -82 -48 -2 0 3
16 11 35 38 93 -4 161 -109 174 l-50 6 229 137 c261 156 396 230 539 299 55
26 102 48 104 48 2 1 1 -59 -3 -131z m4028 16 c42 -20 76 -38 76 -41 0 -2 -15
-1 -33 2 -54 10 -115 -11 -137 -48 -25 -40 -25 -70 0 -126 25 -53 25 -58 1
-66 -52 -16 -413 -268 -549 -383 -29 -25 -54 -43 -56 -41 -2 2 -6 53 -10 113
-5 100 -5 108 12 101 73 -30 144 -30 203 0 32 17 69 69 69 98 0 33 -33 76 -73
96 l-38 19 108 79 c137 101 335 233 349 233 1 0 36 -16 78 -36z m725 -93 c43
-5 77 -15 82 -22 5 -8 9 -37 9 -65 0 -61 -35 -123 -101 -176 -40 -32 -50 -35
-111 -36 -67 0 -68 0 -68 26 1 61 19 262 25 272 7 12 63 12 164 1z m-213 -38
c-3 -21 -8 -88 -12 -150 l-6 -112 -72 -11 c-281 -47 -625 -227 -1011 -529
l-90 -70 -7 42 c-3 23 -7 83 -7 132 l-1 90 120 94 c144 115 314 234 433 306
l88 53 37 -34 c37 -34 132 -88 140 -79 2 2 -21 32 -52 67 -31 35 -56 67 -56
71 0 23 270 126 396 151 108 22 107 22 100 -21z m-4070 -22 c55 -25 101 -83
124 -160 16 -50 20 -91 20 -200 l-1 -136 -28 60 c-35 75 -94 129 -163 146 -39
10 -53 20 -65 44 -21 42 -105 153 -121 159 -24 10 -25 -25 -3 -99 11 -41 24
-81 27 -89 4 -12 0 -16 -15 -16 -12 0 -70 -16 -128 -35 -59 -19 -108 -33 -109
-32 -1 1 2 52 6 112 5 61 9 126 9 146 l1 36 93 31 c122 42 159 50 242 51 48 0
83 -5 111 -18z m4552 -10 c90 -47 163 -161 202 -316 11 -44 35 -179 54 -300
40 -247 63 -340 107 -426 59 -118 126 -168 284 -214 49 -14 90 -27 91 -28 2
-1 -19 -50 -45 -107 -33 -72 -45 -107 -37 -112 7 -5 30 31 66 105 l55 113 65
-9 c161 -21 451 7 692 66 54 13 100 22 103 19 6 -6 7 -82 1 -82 -2 0 -21 7
-42 16 -49 21 -157 21 -204 0 -88 -39 -119 -100 -86 -165 20 -37 58 -62 129
-81 l59 -16 -119 -22 c-198 -36 -299 -45 -458 -39 -237 9 -412 62 -490 149
-79 86 -116 205 -165 519 -38 246 -52 310 -91 411 -51 132 -140 212 -283 253
l-58 17 44 42 c59 57 81 104 76 172 -1 30 1 54 5 54 4 0 24 -9 45 -19z m-5042
-153 c-4 -46 -9 -113 -12 -150 l-6 -68 -134 -64 c-268 -129 -644 -355 -1623
-973 l-24 -16 23 33 c33 47 37 105 10 185 -12 37 -18 70 -14 75 13 12 877 553
1094 685 221 133 463 268 592 329 51 24 95 45 97 45 1 1 0 -36 -3 -81z m-1988
-20 c51 -22 95 -44 97 -49 5 -7 -164 -114 -170 -107 -1 2 -18 49 -37 106 l-35
103 26 -6 c14 -3 68 -25 119 -47z m9707 -119 l7 -98 -215 -105 c-118 -58 -217
-106 -220 -106 -4 0 -11 79 -20 220 l-2 34 215 107 215 106 7 -30 c3 -16 9
-74 13 -128z m-9506 -20 c13 -23 21 -55 21 -85 l0 -49 -104 -63 c-57 -34 -106
-62 -108 -62 -10 0 -72 214 -63 217 6 2 50 28 100 57 86 51 90 53 112 37 12
-9 31 -32 42 -52z m1051 44 c29 -24 32 -31 27 -70 -10 -88 -110 -166 -214
-167 -69 0 -103 29 -103 89 0 124 199 225 290 148z m5420 13 c0 -5 -98 -76
-105 -76 -11 0 -4 69 8 73 15 6 97 9 97 3z m724 -154 c38 -75 89 -127 158
-162 37 -18 69 -42 79 -60 23 -37 56 -45 126 -31 52 10 293 5 293 -7 0 -3 -25
-61 -56 -128 l-56 -122 -36 4 c-174 23 -287 56 -358 105 -91 62 -151 191 -189
409 -18 102 -18 140 -1 85 7 -22 25 -64 40 -93z m1806 94 c0 -21 -14 -29 -127
-74 -137 -54 -267 -100 -351 -126 l-52 -15 0 52 0 52 258 67 c141 36 260 67
265 67 4 1 7 -10 7 -23z m-6920 -45 c0 -80 -52 -144 -221 -269 -31 -23 -59
-42 -63 -42 -5 0 -5 30 -2 68 3 37 8 101 11 144 l7 76 106 35 c118 39 143 45
155 40 4 -2 7 -26 7 -52z m2994 -3 c3 -29 6 -91 7 -138 l2 -84 -54 -47 c-30
-25 -126 -108 -214 -184 l-160 -137 -6 68 c-4 38 -7 101 -8 141 l-1 72 88 76
c48 41 102 83 120 93 18 9 40 29 50 43 17 26 151 148 163 149 4 0 9 -24 13
-52z m-4329 12 c-24 -46 -19 -103 11 -139 27 -32 94 -57 123 -46 37 14 -17
-22 -294 -196 -464 -291 -595 -372 -599 -368 -2 2 -19 51 -39 109 -19 58 -38
112 -42 121 -5 13 19 32 107 85 62 38 255 157 428 266 173 109 316 198 317
198 2 0 -3 -13 -12 -30z m8270 -145 c4 -69 6 -127 4 -129 -13 -11 -239 -98
-369 -142 l-155 -53 -8 72 c-4 40 -6 98 -5 131 l3 58 165 58 c91 31 203 73
250 93 47 19 90 36 96 36 8 1 14 -40 19 -124z m-9280 5 c19 -57 34 -104 32
-105 -19 -16 -320 -182 -430 -238 -211 -108 -335 -158 -550 -223 -16 -5 -17 4
-15 126 l3 132 82 24 c45 13 124 40 175 60 115 45 441 204 568 277 52 31 96
54 98 53 1 -2 18 -49 37 -106z m9795 -72 c13 -135 12 -142 -6 -155 -28 -21
-424 -217 -428 -212 -7 7 -23 294 -17 297 4 1 101 49 216 106 116 58 213 105
216 105 3 1 12 -63 19 -141z m-4951 -48 l1 -75 -158 -131 c-150 -124 -289
-234 -359 -283 l-33 -22 0 133 0 133 128 96 c70 53 190 149 267 214 l140 117
7 -54 c3 -29 6 -87 7 -128z m3326 57 l-34 -77 -86 0 c-47 0 -85 2 -85 4 0 2
24 16 53 31 30 14 83 48 118 75 35 26 65 47 67 46 1 -2 -13 -37 -33 -79z
m-3196 29 l43 -12 -56 -48 c-31 -27 -58 -47 -60 -45 -2 2 -6 34 -9 72 -6 67
-6 67 16 55 12 -6 42 -16 66 -22z m3726 -172 c4 -69 3 -129 -1 -134 -12 -10
-163 -45 -284 -65 -52 -9 -159 -18 -238 -22 l-143 -6 10 24 c5 13 31 72 59
130 l49 105 114 13 c111 12 324 51 384 70 17 5 33 10 36 10 4 1 10 -56 14
-125z m-5885 -37 c94 -131 348 -217 598 -203 l114 7 -7 -128 c-4 -70 -10 -130
-12 -133 -3 -3 -65 -6 -140 -8 -149 -4 -237 10 -353 56 -119 47 -176 95 -225
192 -40 78 -55 154 -55 270 l0 105 23 -56 c13 -31 39 -77 57 -102z m1456 66
c-3 -42 -6 -98 -6 -125 l0 -49 -97 -63 c-54 -34 -128 -79 -164 -100 l-67 -37
15 51 c17 58 12 98 -18 154 -11 21 -19 39 -17 40 2 1 48 28 103 58 55 31 132
77 170 102 39 25 74 46 79 46 5 0 6 -33 2 -77z m-4185 -70 c21 -66 30 -106 24
-112 -6 -5 -86 -53 -178 -105 -205 -117 -453 -242 -596 -301 -104 -42 -280
-100 -285 -93 -2 1 -6 60 -10 130 l-6 127 57 16 c193 54 561 223 823 378 69
41 128 72 131 68 3 -3 21 -52 40 -108z m5257 -167 c-14 -12 -89 -75 -167 -141
-98 -83 -156 -125 -189 -136 l-47 -16 -7 41 c-3 23 -7 70 -7 106 l-1 65 213
182 212 183 9 -132 9 -132 -25 -20z m-1640 152 c34 -33 62 -64 62 -68 0 -8
-83 -38 -162 -59 l-38 -9 0 130 0 130 38 -32 c20 -18 65 -59 100 -92z m5597
-50 c5 -79 8 -145 9 -148 3 -12 -435 -183 -504 -197 l-28 -5 -6 108 c-4 60 -8
128 -9 152 l-2 43 170 58 c94 32 208 74 255 94 47 20 90 36 97 36 7 1 13 -44
18 -141z m-4434 -118 l4 -75 -140 -119 c-139 -118 -365 -297 -417 -331 l-28
-17 0 109 c0 198 -7 183 144 295 72 54 196 152 276 218 l145 121 6 -63 c4 -35
8 -97 10 -138z m4958 50 c6 -72 9 -135 6 -140 -7 -12 -260 -145 -386 -204 -96
-44 -97 -44 -83 -18 11 21 13 53 8 147 l-6 120 218 111 c121 61 222 111 225
112 3 1 11 -57 18 -128z m-10819 -191 c-3 -4 -20 -9 -37 -12 l-33 -6 0 134 0
134 33 3 32 3 5 -125 c3 -69 3 -128 0 -131z m4804 189 c26 -41 28 -89 7 -159
-12 -37 -27 -71 -34 -77 -14 -11 -146 -57 -194 -67 l-33 -7 6 129 c4 70 9 131
13 134 3 3 38 14 76 24 39 10 84 24 100 31 40 18 42 17 59 -8z m4908 -152 l3
-149 -70 -19 c-213 -55 -333 -71 -547 -72 -113 -1 -210 2 -214 6 -4 4 24 74
61 156 l68 149 146 6 c154 6 271 22 436 60 55 13 103 21 107 18 3 -3 8 -73 10
-155z m-8546 32 c20 -62 39 -118 41 -124 5 -14 -96 -74 -123 -74 -34 -1 -103
-38 -151 -83 -108 -100 -563 -324 -810 -400 l-83 -25 0 157 0 157 92 28 c207
62 483 190 798 370 102 58 188 106 192 106 3 0 23 -51 44 -112z m4092 -20 l-3
-133 -85 -57 c-118 -79 -345 -191 -471 -233 -160 -53 -149 -59 -149 93 l0 128
93 28 c50 15 100 30 110 33 17 5 17 4 1 -36 -12 -32 -14 -45 -5 -54 13 -13 82
50 127 115 19 27 58 55 133 97 58 33 135 80 171 105 36 24 69 44 73 45 4 1 6
-59 5 -131z m-1431 -48 c52 -58 143 -106 268 -142 69 -19 103 -23 247 -23
l168 0 0 -127 0 -127 -36 -7 c-20 -4 -91 -4 -158 -1 -195 8 -377 73 -452 161
-66 77 -113 210 -128 356 l-6 65 25 -52 c15 -29 47 -75 72 -103z m2542 56 l2
-74 -83 -22 c-46 -12 -105 -28 -132 -36 -27 -8 -51 -12 -53 -10 -5 5 246 216
256 216 5 0 9 -33 10 -74z m3943 -36 c2 -42 0 -49 -12 -44 -51 22 -89 33 -115
34 -26 1 -21 5 35 29 36 16 70 29 77 30 6 1 12 -19 15 -49z m-6538 -195 c57
-123 124 -180 276 -233 116 -40 216 -55 349 -50 l111 3 0 -123 0 -123 -27 19
c-98 67 -272 50 -342 -35 -26 -31 -32 -34 -62 -28 -70 15 -193 81 -233 125
-49 54 -91 145 -112 240 -15 70 -35 396 -24 406 2 3 10 -26 18 -63 7 -37 28
-99 46 -138z m2105 43 c1 -43 5 -68 14 -72 8 -3 -2 -18 -28 -42 -79 -72 -352
-297 -467 -385 l-118 -90 0 140 0 139 133 100 c72 55 204 160 292 234 l160
134 7 -45 c3 -26 7 -76 7 -113z m-5869 -38 c0 -71 -4 -130 -9 -130 -5 0 -23
-3 -40 -6 l-31 -6 0 129 c0 71 3 133 7 136 3 4 21 7 40 7 l33 0 0 -130z m9970
96 c-19 -24 -16 -83 7 -113 31 -42 79 -66 147 -72 l61 -6 -85 -34 c-108 -42
-316 -116 -354 -125 l-29 -7 27 31 c14 17 26 41 27 53 1 34 -2 180 -4 201 -2
15 18 25 103 55 58 20 107 36 109 34 2 -1 -2 -9 -9 -17z m-8752 -48 c2 -12 -3
-14 -23 -11 -27 6 -33 18 -12 26 18 8 32 2 35 -15z m4026 -157 l-7 -151 -96
-62 c-188 -120 -430 -232 -568 -263 l-33 -7 0 161 c0 148 1 161 18 161 34 0
218 62 316 108 106 48 227 115 316 175 30 20 55 35 57 33 2 -2 1 -71 -3 -155z
m-4356 -108 c21 -37 70 -57 143 -58 79 0 92 11 -151 -127 -311 -177 -582 -307
-758 -362 -46 -14 -85 -26 -88 -26 -2 0 -3 65 -2 145 l3 146 130 43 c185 62
518 218 665 311 l35 22 6 -36 c3 -20 11 -46 17 -58z m2802 37 c0 -33 31 -133
60 -193 50 -105 165 -192 303 -229 43 -11 47 -15 47 -42 0 -40 62 -98 124
-116 61 -17 160 -8 213 18 42 22 87 68 98 101 3 12 19 22 38 27 158 34 418
156 606 284 l62 41 -3 -143 -3 -143 -100 -67 c-182 -121 -401 -224 -570 -269
-100 -26 -313 -37 -410 -20 -141 25 -281 87 -338 150 -75 83 -122 219 -132
381 -15 253 -15 275 -5 260 5 -8 10 -26 10 -40z m-3690 -135 c0 -116 -3 -157
-12 -159 -7 -3 -25 -7 -40 -10 l-28 -6 0 159 c0 173 -2 167 58 170 22 1 22 0
22 -154z m-15 -487 c-11 -3 -30 -6 -43 -7 l-23 -1 3 148 3 147 35 5 35 5 5
-145 c5 -138 4 -145 -15 -152z"/>
<path d="M566 2504 c-19 -18 -21 -75 -4 -92 7 -7 21 -12 33 -12 30 0 45 19 45
56 0 34 -21 64 -45 64 -7 0 -21 -7 -29 -16z"/>
<path d="M564 2225 c-34 -52 24 -117 67 -74 10 10 19 28 19 40 0 58 -55 81
-86 34z"/>
</g>
</svg>
