<?xml version="1.0" standalone="no"?>
<!DOCTYPE svg PUBLIC "-//W3C//DTD SVG 20010904//EN"
 "http://www.w3.org/TR/2001/REC-SVG-20010904/DTD/svg10.dtd">
<svg version="1.0" xmlns="http://www.w3.org/2000/svg"
 width="1280.000000pt" height="712.000000pt" viewBox="0 0 1280.000000 712.000000"
 preserveAspectRatio="xMidYMid meet">
<metadata>
Created by potrace 1.15, written by Peter Selinger 2001-2017
</metadata>
<g transform="translate(0.000000,712.000000) scale(0.100000,-0.100000)"
fill="#211C1C" stroke="none">
<path d="M1626 7104 c-121 -44 -348 -286 -439 -469 -92 -183 -130 -361 -131
-615 -1 -96 3 -214 7 -262 l9 -87 -279 1 c-270 1 -473 -13 -473 -33 0 -11 -11
-11 250 1 220 10 483 1 501 -17 14 -14 58 -234 65 -318 l5 -70 -83 -52 -83
-52 -245 -10 c-248 -11 -437 -37 -535 -74 l-40 -16 39 0 c21 -1 91 8 155 18
145 24 263 39 411 50 162 12 166 7 48 -75 -226 -158 -407 -319 -503 -449 -47
-64 -58 -72 -111 -90 l-59 -19 42 -6 42 -5 -40 -90 c-63 -141 -95 -241 -113
-355 -14 -87 -21 -109 -42 -127 -23 -21 -24 -23 -5 -23 22 0 23 -2 40 -165 6
-55 23 -147 38 -204 l26 -104 -23 -19 -22 -18 31 0 c27 0 34 -6 57 -52 36 -72
117 -202 166 -266 22 -29 37 -59 35 -66 -3 -7 -67 -38 -143 -70 -77 -31 -150
-64 -164 -72 l-25 -15 29 6 c16 3 90 29 164 56 74 28 147 52 161 55 21 4 41
-9 111 -72 72 -64 179 -141 303 -218 15 -9 25 -21 22 -26 -3 -5 -58 -25 -123
-45 -232 -72 -414 -140 -523 -196 -34 -17 -59 -32 -57 -35 2 -2 94 30 204 72
184 69 466 163 541 179 22 4 52 -1 101 -19 106 -38 221 -56 392 -63 85 -3 160
-10 166 -14 12 -10 40 -146 32 -155 -3 -3 -79 -23 -169 -45 -115 -28 -203 -43
-294 -50 -195 -15 -290 -44 -417 -131 -32 -21 -117 -62 -190 -92 -142 -57
-323 -144 -315 -152 2 -3 90 29 194 71 201 79 228 86 219 58 -23 -78 -28 -123
-23 -225 3 -62 9 -128 13 -145 6 -32 5 -33 -57 -60 -113 -47 -459 -224 -459
-234 0 -10 42 8 295 129 105 50 202 94 216 97 24 6 31 1 58 -38 43 -62 141
-149 211 -186 33 -18 60 -36 60 -40 0 -4 -64 -36 -143 -71 -165 -72 -485 -234
-507 -256 -19 -19 22 -2 245 106 93 44 226 107 295 138 l125 57 180 6 c270 10
379 48 525 186 l77 72 159 39 c217 54 214 54 214 43 0 -8 -79 -99 -334 -385
-58 -66 -106 -125 -106 -133 0 -7 8 -17 18 -22 14 -7 41 1 114 34 85 39 118
48 284 76 221 36 329 65 439 118 101 48 182 114 240 196 29 40 70 81 108 108
37 26 76 64 97 96 l35 52 270 -5 c355 -7 550 -37 830 -131 210 -70 513 -221
601 -298 25 -22 150 -175 277 -341 272 -355 345 -446 357 -446 5 0 17 11 25
24 21 31 14 45 -92 183 -217 282 -293 384 -293 394 0 6 8 5 22 -2 28 -15 262
-193 470 -357 249 -197 440 -338 601 -446 81 -53 149 -101 151 -105 3 -4 -3
-29 -12 -55 -16 -46 -16 -48 2 -62 40 -29 75 -15 116 43 l15 21 115 -45 c273
-108 494 -139 790 -112 471 42 789 282 996 751 114 256 225 698 275 1093 6 50
15 98 20 107 5 10 44 41 87 69 232 156 420 336 589 566 88 119 248 413 332
608 155 361 238 502 381 646 147 149 287 202 477 180 102 -11 232 -51 284 -87
20 -14 61 -32 90 -39 40 -11 65 -26 106 -67 30 -29 62 -65 71 -81 16 -27 183
-179 269 -245 58 -44 156 -89 222 -102 65 -12 125 -3 264 41 68 21 157 37 296
54 189 23 204 26 307 70 242 103 535 268 515 288 -8 8 -30 5 -79 -11 -37 -12
-98 -31 -137 -43 -38 -11 -86 -27 -105 -35 -52 -20 -110 -33 -111 -26 -1 4 -1
30 1 58 1 36 -3 56 -15 67 -23 23 -71 21 -96 -4 -20 -20 -22 -62 -8 -144 4
-18 -3 -21 -59 -26 -44 -4 -69 -12 -85 -28 -30 -28 -45 -27 -59 4 -16 36 -78
36 -107 -1 -12 -15 -21 -32 -21 -38 0 -7 -9 -22 -20 -34 -29 -31 -130 -32
-168 -2 -21 17 -34 20 -82 14 -51 -6 -67 -2 -151 31 -115 46 -315 143 -329
160 -7 9 1 36 29 97 61 134 66 115 -51 210 -215 176 -216 176 -289 36 -41 -78
-58 -102 -72 -100 -10 2 -75 40 -145 86 -159 103 -223 138 -316 176 -89 35
-255 80 -296 80 -40 0 -46 16 -54 135 -18 298 -25 387 -30 392 -13 13 -36 -10
-59 -59 -14 -29 -55 -136 -92 -238 -89 -244 -77 -227 -125 -189 -29 23 -52 33
-87 36 -58 5 -89 -10 -121 -57 -19 -28 -23 -43 -18 -77 l5 -42 -114 -86 c-100
-75 -159 -132 -283 -275 l-30 -34 -41 27 c-22 15 -59 51 -82 79 -79 100 -141
127 -322 138 -110 7 -134 12 -174 35 -54 30 -78 21 -53 -19 8 -14 107 -125
220 -247 113 -122 220 -241 238 -264 l32 -42 -39 -84 c-39 -83 -101 -257 -141
-397 -12 -40 -25 -70 -30 -67 -9 6 -18 34 -40 121 -17 70 -70 71 -70 2 0 -54
36 -226 61 -293 l20 -54 -35 -156 c-46 -201 -103 -371 -167 -496 -51 -98 -121
-199 -138 -199 -13 0 -25 41 -71 255 -42 194 -56 235 -77 243 -20 6 -17 -12
38 -267 70 -321 67 -291 30 -291 -23 0 -43 -11 -75 -40 -58 -54 -101 -70 -186
-70 -47 0 -82 -6 -103 -17 -18 -9 -65 -18 -109 -21 l-77 -5 -38 62 c-93 152
-119 186 -140 189 -13 2 -26 -4 -32 -16 -8 -15 1 -37 44 -113 30 -52 55 -100
55 -108 0 -12 -24 -13 -142 -8 -202 8 -407 46 -618 112 l-78 25 -7 128 c-6
115 -12 142 -57 282 -39 118 -52 174 -55 235 -5 103 -10 125 -28 125 -22 0
-36 -35 -114 -285 -97 -309 -103 -325 -118 -325 -68 0 -663 354 -869 518 l-51
40 -6 103 c-4 57 -16 142 -27 189 -52 217 -63 330 -38 386 11 23 10 28 -7 40
-11 8 -24 13 -30 11 -5 -2 -54 -88 -107 -192 -116 -225 -123 -235 -148 -235
-18 0 -690 653 -710 691 -6 11 4 66 31 169 44 167 47 213 13 218 -11 2 -26 -3
-32 -11 -7 -8 -29 -77 -49 -155 -32 -123 -39 -140 -54 -132 -9 5 -128 118
-265 250 l-249 242 -17 66 c-13 52 -16 92 -11 183 6 131 -3 187 -48 288 -36
79 -136 227 -234 346 -88 107 -131 183 -147 260 -9 47 -17 61 -42 76 -54 33
-56 20 -56 -285 0 -149 -3 -308 -7 -353 l-6 -82 -27 14 c-15 8 -73 48 -129 90
-251 186 -504 347 -771 489 -80 43 -147 79 -149 82 -2 2 8 46 23 98 56 198 67
277 73 523 7 274 -3 346 -77 602 -95 329 -158 442 -275 497 -56 27 -111 29
-169 8z m262 -523 c7 -4 25 -41 39 -82 23 -64 27 -90 27 -189 0 -142 -17 -207
-89 -355 -84 -173 -271 -385 -340 -385 -29 0 -193 41 -213 54 -29 18 -20 183
19 335 57 223 277 524 439 600 66 32 95 37 118 22z m-508 -1000 c19 -6 54 -15
78 -21 25 -6 42 -17 42 -25 0 -27 -149 -133 -169 -120 -12 7 -31 95 -31 140 0
39 14 43 80 26z m803 -309 c228 -118 503 -293 742 -472 198 -149 202 -153 210
-234 8 -77 2 -193 -12 -207 -5 -5 -55 20 -121 61 -369 231 -795 434 -1129 539
-73 23 -133 44 -133 46 0 3 47 56 105 120 58 63 121 137 141 165 20 27 42 50
50 50 8 0 74 -31 147 -68z m-303 -342 c348 -113 767 -318 1116 -545 140 -91
164 -123 130 -170 -13 -18 -15 -18 -52 -2 -88 38 -212 39 -310 2 -40 -15 -41
-15 -135 26 -303 132 -722 256 -1048 309 -69 11 -128 25 -132 31 -4 7 -10 37
-13 68 -4 31 -9 72 -12 91 -5 35 -4 36 117 125 66 50 133 95 147 102 32 14 42
12 192 -37z m1420 21 c95 -58 207 -188 258 -301 31 -68 48 -170 28 -170 -6 1
-55 54 -108 118 -183 222 -238 303 -238 354 0 30 10 30 60 -1z m-2080 -339 c0
-13 -12 -22 -22 -16 -10 6 -1 24 13 24 5 0 9 -4 9 -8z m2129 -62 c103 -69 218
-190 181 -190 -11 0 -241 192 -274 229 -33 37 0 23 93 -39z m6528 -6 c6 -21
12 -60 12 -85 1 -50 -9 -59 -70 -59 -37 0 -39 6 -22 63 39 133 58 152 80 81z
m-8648 2 c15 -39 44 -268 35 -275 -5 -4 -53 -24 -107 -45 -53 -21 -133 -62
-176 -91 -79 -52 -95 -57 -218 -71 -53 -6 -63 -4 -63 9 0 48 397 478 460 499
26 8 61 -4 69 -26z m426 -32 c254 -45 657 -167 910 -274 126 -53 136 -62 107
-92 -50 -55 -67 -163 -37 -247 8 -22 11 -41 7 -41 -4 0 -75 20 -157 45 -83 25
-176 50 -207 56 -47 9 -69 21 -120 66 -184 161 -413 263 -590 263 -52 0 -87
15 -88 38 -1 4 -7 52 -14 107 -8 55 -12 103 -10 107 3 4 17 5 32 2 15 -2 90
-16 167 -30z m1659 -26 c203 -173 275 -242 285 -270 15 -42 15 -208 0 -208
-12 0 -297 207 -341 248 -28 26 -28 27 -28 154 0 87 4 128 11 128 6 0 39 -24
73 -52z m6558 -123 c3 -3 2 -20 -1 -38 -5 -25 -14 -35 -41 -44 -42 -14 -100
-17 -100 -4 0 19 19 58 35 74 16 16 94 24 107 12z m232 -21 c77 -19 187 -60
212 -79 18 -13 17 -14 -16 -15 -20 0 -85 9 -145 20 -61 10 -126 21 -145 22
-31 3 -35 6 -38 36 -3 31 -2 32 33 32 21 0 65 -7 99 -16z m22 -102 c30 -17
-22 -35 -113 -40 -88 -5 -94 -1 -72 40 10 19 18 20 89 15 43 -3 86 -9 96 -15z
m-282 -9 c-10 -37 -41 -61 -114 -87 -170 -60 -297 -140 -462 -292 -106 -97
-139 -117 -153 -94 -11 18 24 66 132 175 65 66 142 132 192 165 72 47 92 55
148 61 50 5 70 12 91 32 35 34 88 56 134 57 30 0 35 -3 32 -17z m-367 -15 c29
-27 29 -42 1 -55 -52 -24 -229 -167 -306 -247 -46 -47 -87 -86 -91 -86 -5 0
-14 7 -21 15 -11 13 -7 25 26 73 73 107 308 322 352 322 9 0 26 -10 39 -22z
m786 -9 c46 -12 48 -29 3 -29 -73 0 -124 21 -78 33 28 8 35 7 75 -4z m-6927
-55 c150 -107 245 -186 254 -210 7 -18 4 -41 -15 -89 l-24 -65 24 0 c16 0 36
15 62 45 20 25 41 45 46 45 11 0 216 -171 364 -304 93 -82 103 -94 103 -126 0
-50 -19 -110 -35 -110 -7 0 -58 35 -112 78 -192 153 -426 314 -660 456 l-113
68 0 134 c0 108 3 134 14 134 8 0 49 -25 92 -56z m6674 7 c0 -5 -32 -26 -71
-45 -69 -35 -109 -45 -109 -28 0 10 48 56 75 70 24 14 105 16 105 3z m139 0
c21 -14 -19 -31 -71 -31 l-43 0 30 20 c32 21 61 25 84 11z m266 -17 l30 -14
-35 5 c-19 3 -39 10 -44 15 -15 15 14 12 49 -6z m-110 -13 c3 -5 -3 -12 -14
-16 -23 -7 -71 4 -71 16 0 12 77 12 85 0z m671 -28 c27 -20 61 -47 76 -61 26
-24 27 -26 11 -53 -16 -27 -16 -28 15 -64 36 -41 38 -48 17 -65 -13 -10 -29
-4 -98 35 -98 56 -147 92 -147 107 0 17 60 138 69 138 5 0 30 -16 57 -37z
m-7016 -210 l242 -237 -6 -48 c-12 -88 -21 -94 -72 -50 -17 15 -114 97 -215
183 -101 86 -192 165 -201 176 -16 17 -17 28 -7 103 5 46 8 89 5 96 -3 8 -1
14 4 14 4 0 117 -107 250 -237z m5778 179 c-24 -33 -58 -60 -118 -94 -167 -96
-360 -264 -513 -447 -64 -76 -71 -82 -83 -66 -17 23 -5 47 82 155 135 167 253
279 401 378 76 52 242 134 255 126 5 -3 -6 -26 -24 -52z m273 -2 c-25 -22 -41
-26 -41 -10 0 11 30 29 50 29 10 0 8 -6 -9 -19z m-1248 -24 c37 -16 84 -63 73
-73 -4 -5 -58 -8 -119 -8 -128 0 -165 12 -146 46 23 44 127 63 192 35z m1127
4 c0 -17 -39 -46 -127 -94 -213 -116 -431 -310 -659 -587 -63 -76 -69 -81 -72
-57 -4 36 25 88 101 183 84 104 304 318 387 377 177 125 370 218 370 178z
m-9039 -32 c-84 -129 -125 -230 -142 -355 -17 -126 -20 -129 -148 -149 l-44
-7 7 91 c8 115 37 227 80 317 57 119 75 131 209 134 l59 1 -21 -32z m1538
-119 c534 -153 1045 -388 1501 -691 150 -100 163 -114 157 -163 -3 -22 -10
-53 -16 -68 l-11 -28 -44 26 c-24 14 -81 40 -127 59 -46 19 -160 70 -254 113
-373 175 -625 260 -1116 376 -22 6 -31 19 -54 84 -34 96 -75 180 -126 255 -22
31 -39 59 -39 62 0 10 21 6 129 -25z m7411 22 c0 -6 -35 -38 -77 -73 -258
-209 -459 -427 -765 -825 -60 -79 -113 -143 -119 -143 -21 0 -5 36 70 147 259
387 532 679 800 855 74 49 91 56 91 39z m-6463 -82 c222 -134 609 -410 721
-514 l56 -52 -19 -63 c-10 -34 -24 -64 -31 -67 -7 -2 -81 42 -166 100 -84 57
-198 130 -253 162 -126 73 -482 250 -602 300 -51 22 -93 42 -93 46 0 4 17 10
38 14 61 11 134 51 182 100 24 25 45 45 47 45 1 0 55 -32 120 -71z m5609 27
l28 -23 -48 -82 c-26 -44 -52 -84 -58 -87 -20 -12 -156 145 -143 166 15 25 82
49 137 50 46 0 62 -5 84 -24z m-7296 -77 c96 -26 219 -90 278 -145 l47 -43
-65 4 c-36 3 -122 8 -191 11 -69 3 -130 9 -136 12 -12 8 -36 159 -27 173 7 12
9 12 94 -12z m7378 -13 c4 -17 -36 -84 -83 -141 -18 -22 -27 -27 -36 -18 -12
12 2 45 59 131 35 52 54 61 60 28z m-7679 -49 c15 -85 14 -95 -7 -106 -20 -11
-228 -18 -238 -8 -11 11 58 89 119 134 37 26 70 43 87 43 26 0 29 -3 39 -63z
m8280 -38 c-119 -131 -293 -341 -517 -627 -115 -147 -219 -276 -231 -286 -25
-22 -36 -17 -26 13 16 52 296 416 480 626 99 113 343 355 358 355 5 0 -24 -36
-64 -81z m-541 8 c4 -22 -84 -147 -104 -147 -7 0 -14 7 -14 15 0 40 82 159
104 152 6 -2 12 -11 14 -20z m2136 -119 c43 -32 117 -78 165 -101 81 -40 84
-42 53 -45 -57 -6 -154 50 -295 172 -59 50 -77 82 -30 50 15 -9 63 -44 107
-76z m211 -54 c90 -44 104 -54 78 -54 -42 0 -177 70 -233 121 l-45 40 45 -26
c25 -15 95 -51 155 -81z m-10076 62 c14 -17 63 -345 59 -390 l-3 -31 -110 -11
c-60 -6 -137 -14 -171 -18 -60 -8 -61 -7 -72 21 -46 118 -43 343 6 404 14 16
34 22 107 28 142 13 171 12 184 -3z m542 -2 c91 -8 122 -29 148 -100 40 -106
50 -276 18 -296 -14 -9 -258 -8 -367 1 l-74 6 -24 189 c-12 104 -20 196 -17
204 4 12 26 13 128 8 67 -4 152 -9 188 -12z m2677 -299 c152 -148 312 -302
355 -342 l78 -72 -15 -29 c-25 -49 -43 -58 -69 -36 -135 115 -666 625 -673
646 -9 29 16 110 32 106 8 -2 139 -124 292 -273z m-3871 155 c15 -91 51 -186
103 -273 22 -36 40 -70 40 -76 0 -11 -12 -15 -95 -31 -59 -12 -59 -12 -83 16
-43 53 -102 189 -123 284 -11 51 -19 100 -17 109 3 15 116 51 148 48 11 -2 19
-24 27 -77z m1925 21 c153 -37 564 -173 713 -236 166 -71 375 -172 375 -183 0
-5 -19 -14 -42 -21 -46 -13 -107 -49 -148 -86 l-25 -22 -185 54 c-249 72 -394
105 -650 149 -118 19 -219 40 -224 44 -5 6 -4 37 2 79 7 38 12 108 12 154 0
46 3 87 7 90 11 12 37 8 165 -22z m6843 -48 c-215 -325 -475 -663 -511 -663
-40 0 -8 46 315 449 108 134 202 252 210 263 8 10 16 16 19 13 3 -2 -12 -31
-33 -62z m-4870 -358 c248 -234 325 -312 325 -330 0 -13 -11 -37 -24 -52 l-25
-28 -68 66 c-78 75 -322 296 -497 448 l-118 104 5 42 c4 23 11 54 17 69 l10
27 25 -20 c14 -11 172 -158 350 -326z m-328 89 c43 -37 145 -128 228 -203 82
-75 195 -178 251 -228 57 -51 105 -97 109 -103 7 -11 -31 -90 -44 -90 -11 0
-57 38 -227 185 -77 66 -208 176 -293 244 l-153 124 5 41 c8 53 24 96 36 96 6
0 45 -30 88 -66z m4566 29 c-15 -42 -73 -122 -73 -102 0 20 58 119 70 119 5 0
6 -8 3 -17z m531 -25 c-57 -110 -232 -369 -302 -448 -31 -35 -43 -42 -53 -33
-19 19 -16 22 299 431 34 45 65 82 68 82 2 0 -3 -15 -12 -32z m-434 17 c0 -3
-31 -52 -69 -108 -100 -150 -133 -172 -62 -42 65 121 90 155 111 155 11 0 20
-2 20 -5z m-6880 -21 c27 -27 -63 -190 -151 -274 -81 -78 -192 -127 -218 -97
-6 8 -21 94 -33 192 -18 151 -19 178 -7 186 20 13 395 7 409 -7z m-619 -54 c4
-25 15 -101 24 -170 9 -69 19 -139 21 -156 l6 -31 -89 -12 c-130 -16 -173 -14
-265 15 -117 37 -225 95 -310 168 -66 57 -115 112 -106 121 6 6 126 35 145 35
11 0 46 -23 79 -52 113 -99 175 -140 203 -133 14 4 30 10 34 14 4 4 -13 50
-38 101 -25 52 -45 99 -45 105 0 8 35 17 93 24 50 7 99 14 107 16 8 2 42 2 75
2 l60 -2 6 -45z m1109 20 c260 -35 662 -133 888 -217 l42 -16 0 -59 c0 -72 20
-121 67 -170 20 -21 35 -39 32 -42 -2 -2 -44 7 -94 20 -327 88 -626 131 -1074
154 -101 5 -186 11 -188 14 -3 3 21 40 53 83 33 43 79 115 102 161 49 93 43
90 172 72z m1671 -146 c199 -154 564 -467 573 -491 3 -8 1 -23 -4 -34 -9 -15
-15 -17 -30 -9 -11 6 -20 14 -20 19 0 16 -79 63 -152 90 -53 20 -111 55 -199
120 -68 50 -157 115 -198 144 -101 71 -104 77 -80 155 11 34 24 62 28 62 5 0
42 -25 82 -56z m978 -25 c42 -57 98 -229 75 -229 -12 0 -105 72 -113 88 -5 10
-12 49 -16 89 -10 105 5 120 54 52z m4096 -58 c-38 -76 -204 -329 -229 -350
-13 -11 -17 -11 -22 3 -11 28 4 59 66 136 33 41 93 121 133 177 39 56 75 102
80 103 4 0 -8 -31 -28 -69z m-5372 38 c31 -16 57 -50 57 -76 0 -24 -64 -93
-86 -93 -16 0 -195 77 -207 89 -11 11 34 36 123 67 75 27 83 28 113 13z m287
-174 c129 -92 240 -181 240 -193 -1 -4 -28 -19 -61 -34 l-61 -28 -41 22 c-23
11 -71 40 -107 63 -36 23 -84 52 -108 66 -48 26 -49 32 -18 119 9 25 19 51 21
58 2 6 7 12 10 12 3 0 59 -38 125 -85z m-465 25 c47 -23 85 -45 85 -50 0 -12
-103 -49 -157 -57 -39 -5 -47 -3 -73 22 -36 34 -38 70 -8 102 30 32 55 29 153
-17z m-1265 -20 c522 -22 1003 -128 1411 -311 164 -73 355 -182 424 -241 33
-28 84 -62 113 -75 54 -24 248 -148 259 -166 6 -10 -43 -55 -83 -77 -18 -10
-30 -6 -81 29 -72 49 -333 187 -458 243 -217 97 -390 151 -655 203 -74 15
-164 40 -200 55 -123 53 -214 64 -301 35 -32 -10 -136 -17 -379 -24 -203 -6
-404 -18 -510 -30 -221 -26 -256 -26 -265 -4 -3 10 -9 45 -12 79 l-6 61 59 23
c100 39 266 128 319 169 58 46 39 45 365 31z m6249 -44 c-7 -14 -16 -26 -21
-26 -5 0 -1 14 7 31 20 37 31 33 14 -5z m-3471 -35 c26 -23 32 -37 32 -71 0
-43 -14 -80 -30 -80 -17 0 -42 49 -60 118 -10 37 -16 70 -13 75 6 10 33 -6 71
-42z m-213 -22 c43 -38 82 -102 101 -166 23 -77 4 -75 -88 7 -91 81 -108 99
-108 114 0 17 39 76 50 76 5 0 25 -14 45 -31z m3725 -7 c0 -19 -106 -160 -114
-151 -7 7 92 159 104 159 5 0 10 -4 10 -8z m-4737 -23 c23 -12 90 -53 150 -92
93 -60 108 -73 102 -91 -3 -12 -11 -43 -19 -70 -7 -28 -18 -52 -24 -54 -6 -2
-42 15 -79 37 -58 34 -127 67 -393 188 -31 14 -33 16 -15 24 11 4 34 8 50 9
17 0 64 16 105 34 41 19 76 35 78 35 1 1 22 -9 45 -20z m4927 -40 c0 -11 -19
-40 -42 -65 -35 -38 -43 -42 -51 -29 -6 11 -1 29 17 60 38 63 76 81 76 34z
m-3416 -117 c215 -150 361 -238 570 -348 90 -47 167 -91 169 -98 3 -7 -3 -34
-12 -61 -14 -44 -19 -50 -41 -47 -41 4 -317 147 -456 235 -226 144 -454 313
-454 337 0 15 39 100 46 100 4 0 84 -53 178 -118z m3246 69 c0 -20 -165 -211
-182 -211 -6 0 -5 7 4 18 8 9 47 61 87 115 73 97 91 113 91 78z m-3824 -13
c16 -12 66 -55 112 -96 70 -63 82 -78 82 -105 0 -46 -10 -77 -25 -77 -22 0
-235 190 -241 216 -7 29 13 84 31 84 7 0 25 -10 41 -22z m4032 -47 c8 -52
-458 -461 -482 -422 -4 5 44 54 106 109 62 55 165 154 228 220 63 66 122 119
130 118 8 -1 17 -12 18 -25z m-154 -19 c9 -15 -21 -48 -160 -177 -126 -117
-168 -147 -131 -95 32 46 260 280 272 280 8 0 16 -4 19 -8z m-3391 -132 c187
-139 388 -263 592 -366 94 -47 174 -91 179 -98 12 -18 -13 -106 -30 -106 -7 0
-16 5 -19 10 -13 21 -108 61 -158 67 -69 7 -142 44 -327 167 -257 171 -450
330 -450 370 0 24 51 78 64 68 6 -5 73 -55 149 -112z m-388 -82 l60 -57 -21
-38 c-12 -20 -26 -39 -31 -40 -9 -3 -263 213 -263 223 0 8 31 67 42 81 11 13
67 -32 213 -169z m-2363 152 c37 0 68 -4 68 -8 0 -9 -268 -305 -279 -309 -3
-1 -100 -14 -216 -28 -115 -14 -267 -35 -338 -47 -70 -12 -130 -18 -134 -14
-8 8 -32 316 -26 333 7 17 27 23 143 38 192 25 517 45 639 39 41 -2 105 -4
143 -4z m863 -105 c234 -61 352 -105 580 -214 139 -67 363 -197 398 -230 17
-16 17 -20 2 -47 -8 -16 -20 -41 -25 -56 -10 -28 -37 -37 -55 -19 -17 16 -234
121 -340 163 -247 99 -438 150 -690 181 l-100 13 3 29 c2 17 5 50 8 75 4 32 0
61 -15 99 l-20 53 62 -7 c34 -3 121 -22 192 -40z m2980 -60 c54 -92 84 -268
49 -282 -24 -9 -41 14 -80 110 -39 95 -70 228 -60 254 6 14 11 12 37 -13 17
-16 41 -47 54 -69z m-4964 38 c7 -16 14 -96 17 -180 l5 -152 -57 -16 c-31 -9
-63 -14 -70 -12 -8 3 -16 21 -20 41 -12 61 -82 152 -158 206 -38 27 -75 51
-81 53 -23 8 2 19 99 42 55 12 117 27 139 33 22 5 57 10 78 11 32 1 39 -3 48
-26z m3821 -106 c158 -119 429 -304 482 -329 l26 -11 -27 -30 c-16 -16 -40
-38 -55 -48 l-27 -20 -78 52 c-103 69 -316 229 -428 321 -88 73 -90 75 -87
113 3 36 17 75 27 75 3 0 78 -55 167 -123z m-550 71 c104 -81 188 -162 188
-179 0 -21 -48 -61 -67 -57 -26 5 -232 183 -232 200 -1 13 44 78 54 78 1 0 27
-19 57 -42z m-2114 -93 l22 -45 -60 0 c-33 0 -60 3 -60 6 0 8 63 82 71 83 3 1
15 -19 27 -44z m2001 -12 c20 -15 141 -117 269 -225 539 -458 787 -641 1081
-797 78 -42 156 -92 188 -121 60 -55 104 -67 199 -56 43 5 56 3 60 -8 7 -19
-40 -124 -59 -132 -38 -14 -386 148 -561 263 -150 98 -334 237 -591 447 -298
245 -370 309 -397 357 -23 42 -98 99 -130 99 -37 0 -218 130 -218 156 0 8 10
14 23 14 12 1 33 7 47 15 36 20 48 19 89 -12z m598 -111 c167 -133 263 -205
376 -281 l77 -52 0 -69 c0 -45 -4 -70 -11 -70 -14 0 -148 93 -264 184 -116 90
-385 315 -385 322 0 13 42 84 49 84 5 0 76 -53 158 -118z m-2476 6 c80 -42 83
-43 183 -43 93 0 107 3 175 34 71 32 79 33 150 27 118 -11 373 -65 531 -112
136 -41 495 -201 572 -255 19 -14 30 -34 38 -71 6 -29 22 -72 36 -97 13 -24
22 -46 19 -49 -2 -3 -74 27 -159 67 -294 135 -488 197 -741 235 -121 18 -395
36 -563 36 l-123 0 7 45 c8 59 -1 95 -25 95 -15 0 -24 -16 -40 -70 -16 -52
-28 -73 -44 -79 -12 -5 -92 -17 -177 -26 -85 -9 -207 -26 -270 -36 -133 -22
-140 -22 -140 -10 0 5 65 82 145 170 100 110 154 163 173 167 15 3 32 7 37 9
6 2 38 4 73 4 55 1 72 -4 143 -41z m-411 13 c0 -13 -206 -245 -276 -312 l-59
-55 -189 -48 c-104 -26 -191 -44 -194 -41 -3 2 4 37 16 77 21 76 36 149 47
230 4 30 13 51 24 57 23 13 196 45 371 70 225 32 260 35 260 22z m2803 -147
c356 -295 635 -484 903 -610 106 -50 116 -56 109 -77 -3 -12 -11 -40 -17 -62
-6 -22 -14 -44 -19 -49 -18 -20 -249 109 -459 257 -217 152 -740 578 -740 602
0 12 55 65 66 65 3 0 74 -57 157 -126z m1184 70 c33 -25 83 -109 83 -139 0 -8
-7 -15 -15 -15 -28 0 -160 50 -177 68 -17 16 -17 20 -1 70 17 51 19 53 47 48
16 -4 44 -18 63 -32z m-4839 -131 c-14 -177 -121 -304 -289 -342 -98 -23 -98
-17 -5 70 101 94 129 139 155 240 17 68 21 74 52 85 19 7 47 13 63 13 l29 1
-5 -67z m5203 12 c156 -45 296 -71 481 -90 246 -24 255 -25 274 -40 16 -12 17
-16 5 -24 -24 -16 -195 -24 -385 -18 -149 4 -207 11 -327 36 -81 17 -169 39
-195 49 -41 15 -49 22 -46 42 4 38 42 92 60 85 9 -3 68 -21 133 -40z m-399
-44 c126 -43 128 -44 128 -96 0 -24 -4 -55 -10 -69 -9 -25 -10 -25 -52 -12
-110 33 -200 71 -205 84 -8 21 26 122 41 122 7 0 51 -13 98 -29z m-3557 -61
c9 -14 -31 -50 -84 -73 -35 -16 -66 -20 -136 -20 -95 0 -231 19 -240 33 -7 12
13 16 150 34 66 9 147 20 180 25 84 12 123 13 130 1z m4895 1 c0 -14 -58 -34
-77 -26 -17 6 -17 7 1 21 22 15 76 19 76 5z m-2528 -200 c389 -322 604 -480
823 -606 55 -31 102 -59 104 -61 2 -2 -10 -19 -28 -39 -17 -20 -31 -40 -31
-45 0 -25 -47 -2 -180 88 -215 144 -521 382 -862 670 -86 72 -88 74 -88 117 0
59 8 77 28 65 10 -5 115 -90 234 -189z m1498 163 c228 -61 540 -87 769 -65
116 11 141 7 141 -24 0 -17 -40 -33 -152 -60 -127 -31 -228 -41 -256 -26 -17
9 -28 8 -54 -5 -28 -15 -46 -15 -165 -5 -154 13 -285 34 -361 59 -54 16 -54
16 -48 52 3 19 6 50 6 68 0 19 5 32 13 32 6 0 55 -12 107 -26z m1342 -16 c-7
-7 -12 -8 -12 -2 0 14 12 26 19 19 2 -3 -1 -11 -7 -17z m344 -55 c-7 -69 -63
-341 -92 -443 -97 -350 -226 -607 -396 -786 -144 -152 -283 -234 -508 -300
-117 -34 -136 -37 -300 -41 -192 -6 -310 7 -477 52 -89 24 -267 95 -286 114
-12 12 4 75 26 105 13 18 18 17 119 -17 96 -32 157 -47 320 -78 36 -6 70 -21
94 -40 21 -16 48 -32 61 -35 43 -11 112 3 154 30 25 17 69 32 117 41 367 68
612 223 804 510 130 195 251 494 329 817 19 76 36 138 38 138 2 0 1 -30 -3
-67z m-666 21 c0 -17 -26 -19 -36 -3 -7 12 15 31 28 23 4 -3 8 -12 8 -20z
m515 -76 c-77 -236 -205 -489 -330 -654 -90 -118 -235 -243 -347 -300 -54 -28
-56 -26 -65 71 l-6 61 74 44 c115 67 197 131 284 222 123 127 214 266 342 522
37 75 69 132 71 126 2 -5 -8 -47 -23 -92z m95 93 c0 -21 -63 -252 -96 -356
-42 -129 -122 -323 -166 -403 -87 -156 -206 -304 -319 -395 -64 -51 -208 -137
-231 -137 -15 0 -18 8 -17 58 2 93 7 103 87 147 219 122 369 290 530 595 55
106 135 301 179 442 16 51 33 76 33 49z m-1994 -45 c148 -50 156 -55 149 -85
-3 -13 -18 -44 -32 -68 -22 -38 -28 -42 -51 -36 -28 6 -198 69 -213 78 -10 6
32 145 44 145 2 0 48 -15 103 -34z m1748 -10 c-9 -14 -20 -26 -25 -26 -17 0
-9 30 13 52 27 27 36 9 12 -26z m40 -96 c-36 -71 -60 -108 -66 -102 -15 15 6
77 48 146 50 83 68 103 72 83 2 -9 -22 -66 -54 -127z m-279 90 c-10 -11 -23
-20 -28 -20 -6 0 0 11 13 25 27 29 42 25 15 -5z m72 -47 c5 -15 -84 -113 -102
-113 -15 0 -27 39 -17 56 12 22 86 74 101 71 8 -1 16 -7 18 -14z m-2881 -81
c60 -48 195 -157 299 -242 250 -202 402 -317 568 -429 109 -72 137 -96 137
-114 0 -12 6 -46 14 -75 7 -29 11 -52 8 -52 -26 0 -479 331 -692 506 -111 91
-270 216 -397 312 -68 51 -123 95 -123 98 0 23 47 84 65 84 6 0 61 -39 121
-88z m-2372 59 c8 -12 -87 -96 -136 -122 -65 -34 -155 -49 -293 -49 -104 0
-137 4 -165 18 -54 26 -50 47 12 70 62 23 129 35 368 67 211 28 207 27 214 16z
m4018 -15 c100 -22 177 -32 406 -52 l62 -6 0 -63 0 -63 -57 -5 c-78 -6 -293
10 -429 33 -118 20 -164 34 -164 49 0 23 54 131 65 131 2 0 54 -11 117 -24z
m984 7 c7 -10 14 -22 14 -26 1 -21 -327 -147 -383 -147 -34 0 -79 54 -75 89 3
25 7 26 113 43 61 10 144 26 185 37 97 24 130 25 146 4z m-1432 -76 c34 -13
82 -32 109 -41 38 -14 47 -22 47 -41 0 -33 13 -38 48 -18 29 17 35 16 154 -10
167 -37 238 -46 409 -54 l147 -6 6 -37 c9 -58 -2 -99 -30 -106 -13 -4 -106 -4
-207 -1 -243 6 -368 30 -449 87 -54 38 -61 40 -131 40 -71 0 -79 3 -206 66
-72 36 -131 69 -131 72 1 10 132 70 154 71 11 1 47 -10 80 -22z m1696 -19 c0
-34 -32 -98 -50 -98 -12 0 -30 33 -30 55 0 18 52 75 69 75 6 0 11 -15 11 -32z
m-2985 -85 c72 -54 249 -193 395 -309 436 -347 599 -463 818 -585 62 -34 112
-67 112 -73 0 -19 -53 -96 -66 -96 -20 0 -327 202 -469 309 -77 58 -260 198
-406 312 -147 114 -311 238 -365 275 -142 98 -179 129 -215 185 -34 54 -34 54
1 68 48 19 67 10 195 -86z m2781 80 c25 -33 15 -51 -54 -96 -78 -52 -247 -137
-273 -137 -19 0 -92 87 -86 103 1 5 54 26 117 47 63 21 144 51 180 68 76 36
98 38 116 15z m78 -132 l19 -33 -29 -24 c-133 -112 -295 -217 -319 -208 -21 8
-57 104 -45 119 6 7 36 22 68 34 31 12 104 51 162 86 58 35 109 63 115 61 5
-1 18 -17 29 -35z m96 -151 c-16 -29 -173 -182 -235 -228 -60 -44 -145 -92
-165 -92 -6 0 -10 30 -10 74 l0 73 98 58 c96 57 199 133 236 174 l20 21 32
-31 c25 -24 31 -36 24 -49z m-660 10 c0 -5 -4 -10 -10 -10 -5 0 -10 5 -10 10
0 6 5 10 10 10 6 0 10 -4 10 -10z m-607 -31 c20 -5 37 -14 37 -20 0 -15 -68
-40 -114 -42 l-41 -2 -3 44 -3 44 43 -7 c24 -4 60 -11 81 -17z m721 -46 c46
-48 54 -72 30 -90 -29 -21 -50 -15 -87 26 -50 55 -63 81 -46 92 31 19 68 9
103 -28z m-380 11 l188 -7 -4 -69 c-3 -38 -9 -72 -12 -76 -23 -23 -445 -6
-470 19 -11 10 10 61 47 117 16 23 28 31 42 28 11 -2 105 -8 209 -12z m460
-160 c9 -24 7 -74 -3 -74 -16 0 -53 60 -47 75 7 20 42 19 50 -1z m-644 -40
c74 -9 174 -14 245 -12 l120 3 -2 -74 c-1 -41 -7 -79 -13 -85 -23 -23 -489 1
-562 29 -16 6 -16 10 2 57 25 67 47 98 68 98 10 0 74 -7 142 -16z m473 -20
c38 -19 117 -82 117 -93 0 -10 -100 -41 -132 -41 -30 0 -38 20 -38 91 0 41 5
59 17 59 2 0 18 -7 36 -16z m-869 -110 c26 -9 50 -23 53 -31 10 -24 -46 -73
-84 -73 -31 0 -33 2 -33 38 0 20 -3 47 -6 60 -8 27 5 28 70 6z m1041 -87 c4
-18 5 -50 3 -71 l-3 -39 -79 -23 c-44 -13 -93 -24 -108 -24 l-28 0 0 80 0 79
68 20 c119 35 137 33 147 -22z m-745 17 c41 -8 162 -17 268 -21 l192 -6 0 -55
c0 -52 -1 -54 -22 -46 -13 4 -48 8 -78 8 -48 1 -63 -4 -112 -38 -57 -38 -59
-39 -125 -32 -77 8 -191 30 -275 53 -65 17 -69 27 -43 90 26 61 44 75 85 68
19 -4 69 -14 110 -21z m-340 -159 c0 -13 -30 -62 -45 -75 -14 -11 -25 -9 -75
15 -33 16 -60 32 -60 37 0 4 26 8 58 9 31 0 66 4 77 9 24 10 45 12 45 5z m220
-34 c47 -11 117 -25 155 -31 39 -6 85 -13 103 -16 27 -4 32 -9 27 -22 -4 -9
-11 -41 -16 -71 -4 -30 -13 -59 -18 -64 -23 -23 -345 54 -408 98 -22 15 -22
17 -7 53 25 60 43 84 62 78 9 -3 55 -14 102 -25z m875 -48 c-13 -109 -47 -137
-184 -150 l-63 -6 7 74 c4 41 10 78 14 82 11 11 169 54 205 56 l28 1 -7 -57z"/>
<path d="M8755 4725 c-38 -7 -97 -21 -130 -31 -53 -15 -57 -18 -35 -25 14 -4
73 -7 131 -8 l107 -1 5 -29 c5 -21 13 -30 35 -34 36 -7 95 8 112 28 25 30 4
43 -77 50 -43 4 -94 10 -113 15 l-35 7 39 8 c21 4 69 5 107 2 75 -6 92 6 32
22 -48 14 -90 13 -178 -4z"/>
<path d="M12190 4233 c-40 -21 -286 -189 -294 -201 -6 -11 24 -155 36 -169 18
-22 62 -14 111 21 26 18 60 39 76 46 38 15 41 26 30 86 -9 44 -8 50 11 63 106
72 125 88 128 111 5 52 -41 72 -98 43z"/>
<path d="M11545 3359 c-9 -13 -8 -106 0 -119 3 -5 1 -18 -4 -28 -7 -14 -6 -25
4 -38 11 -15 26 -19 80 -19 83 0 99 17 55 58 -27 25 -30 35 -30 86 0 57 -1 59
-31 65 -45 9 -67 7 -74 -5z"/>
<path d="M7430 2541 c-34 -9 -40 -55 -9 -71 16 -9 238 -38 302 -40 13 0 8 -30
-13 -70 -20 -39 -56 -60 -80 -45 -6 4 -20 -1 -31 -10 -10 -10 -41 -20 -68 -23
-47 -4 -50 -3 -65 27 -9 17 -25 35 -35 41 -51 27 -130 -5 -117 -47 4 -12 14
-24 24 -28 19 -7 323 -34 387 -35 l41 0 42 85 c23 47 42 92 42 100 0 18 -14
21 -158 35 -129 12 -142 16 -142 40 0 10 -6 22 -12 28 -18 14 -78 22 -108 13z"/>
</g>
</svg>
